<svg width="35" height="34" viewBox="0 0 35 34" fill="none" xmlns="http://www.w3.org/2000/svg">
<rect x="0.699951" y="0.199951" width="33.6" height="33.6" rx="10" fill="url(#paint0_linear_13_614)"/>
<path d="M17.5001 10.6999C16.2541 10.6999 15.036 11.0693 14 11.7616C12.964 12.4538 12.1565 13.4378 11.6797 14.5889C11.2028 15.7401 11.0781 17.0068 11.3212 18.2289C11.5642 19.451 12.1643 20.5736 13.0453 21.4546C13.9264 22.3357 15.0489 22.9357 16.271 23.1788C17.4931 23.4219 18.7598 23.2971 19.911 22.8203C21.0622 22.3435 22.0461 21.536 22.7384 20.4999C23.4306 19.4639 23.8001 18.2459 23.8001 16.9999C23.7984 15.3295 23.1341 13.7281 21.953 12.547C20.7718 11.3659 19.1704 10.7016 17.5001 10.6999ZM17.5001 21.1999C16.6694 21.1999 15.8574 20.9535 15.1667 20.492C14.476 20.0305 13.9377 19.3746 13.6198 18.6071C13.3019 17.8397 13.2187 16.9952 13.3808 16.1805C13.5429 15.3658 13.9429 14.6174 14.5302 14.03C15.1176 13.4426 15.866 13.0426 16.6807 12.8806C17.4954 12.7185 18.3399 12.8017 19.1074 13.1196C19.8748 13.4374 20.5308 13.9758 20.9923 14.6665C21.4538 15.3571 21.7001 16.1692 21.7001 16.9999C21.7001 18.1138 21.2576 19.182 20.4699 19.9697C19.6823 20.7574 18.614 21.1999 17.5001 21.1999ZM23.8001 3.34985H11.2001C9.2514 3.35194 7.38311 4.12698 6.00517 5.50492C4.62722 6.88286 3.85218 8.75115 3.8501 10.6999V23.2999C3.85218 25.2486 4.62722 27.1168 6.00517 28.4948C7.38311 29.8727 9.2514 30.6478 11.2001 30.6499H23.8001C25.7488 30.6478 27.6171 29.8727 28.995 28.4948C30.373 27.1168 31.148 25.2486 31.1501 23.2999V10.6999C31.148 8.75115 30.373 6.88286 28.995 5.50492C27.6171 4.12698 25.7488 3.35194 23.8001 3.34985ZM29.0501 23.2999C29.0501 24.6922 28.497 26.0276 27.5124 27.0122C26.5278 27.9967 25.1925 28.5499 23.8001 28.5499H11.2001C9.80771 28.5499 8.47235 27.9967 7.48779 27.0122C6.50322 26.0276 5.9501 24.6922 5.9501 23.2999V10.6999C5.9501 9.30747 6.50322 7.97211 7.48779 6.98754C8.47235 6.00298 9.80771 5.44985 11.2001 5.44985H23.8001C25.1925 5.44985 26.5278 6.00298 27.5124 6.98754C28.497 7.97211 29.0501 9.30747 29.0501 10.6999V23.2999ZM25.9001 10.1749C25.9001 10.4864 25.8077 10.7909 25.6347 11.0499C25.4616 11.3089 25.2156 11.5108 24.9278 11.63C24.64 11.7492 24.3234 11.7804 24.0178 11.7196C23.7123 11.6588 23.4317 11.5088 23.2114 11.2885C22.9911 11.0683 22.8411 10.7876 22.7804 10.4821C22.7196 10.1766 22.7508 9.85992 22.87 9.57213C22.9892 9.28433 23.1911 9.03835 23.4501 8.86529C23.7091 8.69222 24.0136 8.59985 24.3251 8.59985C24.7428 8.59985 25.1434 8.76579 25.4388 9.06116C25.7342 9.35653 25.9001 9.75714 25.9001 10.1749Z" fill="#FAFAFA"/>
<defs>
<linearGradient id="paint0_linear_13_614" x1="34.6999" y1="-4.80005" x2="21.5" y2="40.7" gradientUnits="userSpaceOnUse">
<stop stop-color="#FF0BE7"/>
<stop offset="0.832547" stop-color="#FFD726"/>
<stop offset="1" stop-color="white"/>
</linearGradient>
</defs>
</svg>
