<svg width="35" height="34" viewBox="0 0 35 34" fill="none" xmlns="http://www.w3.org/2000/svg">
<path d="M25.1201 19.2101L20.9201 17.1101C20.7547 17.0277 20.5706 16.9904 20.3863 17.0019C20.2019 17.0134 20.0238 17.0734 19.8701 17.1757L17.942 18.462C17.0569 17.9754 16.3286 17.2471 15.842 16.362L17.1283 14.4339C17.2306 14.2801 17.2905 14.1021 17.3021 13.9177C17.3136 13.7334 17.2763 13.5492 17.1939 13.3839L15.0939 9.18392C15.0068 9.00813 14.8723 8.86025 14.7055 8.75702C14.5387 8.65379 14.3463 8.59934 14.1502 8.59985C12.7578 8.59985 11.4225 9.15298 10.4379 10.1375C9.45332 11.1221 8.9002 12.4575 8.9002 13.8499C8.90367 16.912 10.1217 19.8478 12.2869 22.0131C14.4522 24.1784 17.388 25.3964 20.4502 25.3999C21.1396 25.3999 21.8223 25.2641 22.4593 25.0002C23.0962 24.7364 23.675 24.3497 24.1625 23.8622C24.65 23.3747 25.0367 22.7959 25.3006 22.1589C25.5644 21.522 25.7002 20.8393 25.7002 20.1499C25.7003 19.9548 25.6461 19.7635 25.5437 19.5975C25.4412 19.4316 25.2945 19.2974 25.1201 19.2101ZM20.4502 23.2999C17.9448 23.2971 15.5427 22.3006 13.7711 20.5289C11.9995 18.7573 11.003 16.3553 11.0002 13.8499C11 13.1216 11.2521 12.4157 11.7138 11.8524C12.1754 11.2891 12.8179 10.9032 13.532 10.7602L15.0388 13.779L13.7564 15.6874C13.6606 15.8311 13.6017 15.9963 13.585 16.1682C13.5683 16.3401 13.5943 16.5135 13.6606 16.673C14.4119 18.4585 15.8323 19.879 17.6178 20.6302C17.7778 20.6995 17.9525 20.7279 18.1262 20.7128C18.2999 20.6976 18.4671 20.6395 18.6127 20.5436L20.5303 19.2652L23.549 20.772C23.405 21.4869 23.0173 22.1297 22.4522 22.5907C21.8871 23.0517 21.1795 23.3024 20.4502 23.2999ZM17.3002 3.34985C14.9436 3.34934 12.6269 3.95897 10.5758 5.1194C8.52467 6.27984 6.80892 7.95155 5.59555 9.97181C4.38217 11.9921 3.71252 14.2921 3.65176 16.6479C3.59099 19.0038 4.1412 21.3352 5.24882 23.4154L3.75913 27.8844C3.63574 28.2544 3.61783 28.6515 3.70742 29.0311C3.79701 29.4107 3.99055 29.7579 4.26635 30.0337C4.54215 30.3095 4.88932 30.503 5.26894 30.5926C5.64856 30.6822 6.04562 30.6643 6.41563 30.5409L10.8847 29.0512C12.7153 30.0249 14.7437 30.5687 16.8159 30.6415C18.8881 30.7142 20.9496 30.3138 22.844 29.4709C24.7384 28.6279 26.4158 27.3644 27.749 25.7764C29.0822 24.1883 30.0361 22.3174 30.5382 20.3057C31.0404 18.2939 31.0777 16.1942 30.6472 14.166C30.2167 12.1377 29.3298 10.2341 28.0538 8.59974C26.7778 6.96539 25.1463 5.64321 23.283 4.73356C21.4197 3.82391 19.3737 3.3507 17.3002 3.34985ZM17.3002 28.5499C15.2697 28.5512 13.2749 28.0165 11.5173 26.9998C11.3886 26.9252 11.2456 26.8787 11.0976 26.8636C10.9496 26.8484 10.8001 26.8649 10.6589 26.9119L5.7502 28.5499L7.38688 23.6411C7.43406 23.5001 7.45074 23.3506 7.4358 23.2026C7.42087 23.0546 7.37467 22.9115 7.30026 22.7827C6.0271 20.5815 5.51593 18.0217 5.84605 15.5004C6.17617 12.9791 7.32912 10.6371 9.12606 8.83793C10.923 7.03872 13.2635 5.88281 15.7844 5.5495C18.3053 5.2162 20.8658 5.72413 23.0685 6.99451C25.2713 8.2649 26.9933 10.2267 27.9674 12.5756C28.9414 14.9245 29.1131 17.5292 28.4557 19.9856C27.7983 22.4421 26.3487 24.6129 24.3317 26.1614C22.3147 27.7099 19.8431 28.5494 17.3002 28.5499Z" fill="#3BCF38"/>
</svg>
